<svg width="34" height="34" viewBox="0 0 34 34" fill="none" xmlns="http://www.w3.org/2000/svg">
<path d="M1.68961 12.3744L2.17763 12.4832L1.68961 12.3744ZM32.976 18.2043L32.4768 18.1765L32.4768 18.1765L32.976 18.2043ZM22.4697 1.78697L22.5866 1.30082L22.4697 1.78697ZM2.00385 16.7792C2.01683 17.0551 2.25097 17.2681 2.5268 17.2552C2.80264 17.2422 3.01573 17.008 3.00274 16.7322L2.00385 16.7792ZM21.296 6.72733C21.4683 6.94313 21.7829 6.97839 21.9987 6.80609C22.2145 6.63379 22.2498 6.31917 22.0775 6.10338L21.296 6.72733ZM1.20159 12.2656C-0.195386 18.5316 0.619359 23.2449 2.54053 26.5981C4.45927 29.947 7.45345 31.8887 10.3213 32.6605L10.5812 31.6948C7.94489 30.9854 5.18225 29.1973 3.4082 26.101C1.63658 23.0088 0.822583 18.5611 2.17763 12.4832L1.20159 12.2656ZM10.3213 32.6605C13.1239 33.4147 18.6279 34.1497 23.581 32.5337C26.0683 31.7222 28.4303 30.3128 30.2292 28.0042C32.0287 25.6947 33.2362 22.5218 33.4752 18.2321L32.4768 18.1765C32.2468 22.3027 31.0922 25.2696 29.4403 27.3895C27.7879 29.5103 25.6094 30.82 23.2708 31.583C18.5721 33.1161 13.2828 32.4219 10.5812 31.6948L10.3213 32.6605ZM33.4752 18.2321C33.8254 11.9492 30.9666 3.31556 22.5866 1.30082L22.3528 2.27311C30.04 4.12127 32.8153 12.1029 32.4768 18.1765L33.4752 18.2321ZM22.5866 1.30082C20.8724 0.888686 18.4677 0.520821 15.9791 0.500853C13.4983 0.480947 10.8847 0.806122 8.78588 1.81957L9.22071 2.72009C11.1219 1.80208 13.5597 1.48147 15.9711 1.50082C18.3747 1.52011 20.7033 1.87654 22.3528 2.27311L22.5866 1.30082ZM8.78588 1.81957C5.57976 3.36768 1.59584 8.11076 2.00385 16.7792L3.00274 16.7322C2.61075 8.4039 6.42683 4.06915 9.22071 2.72009L8.78588 1.81957ZM22.0775 6.10338C19.4604 2.82567 14.8276 1.68184 10.5942 2.67366C6.33733 3.67099 2.41137 6.8393 1.20159 12.2656L2.17763 12.4832C3.29494 7.47166 6.89748 4.56684 10.8223 3.6473C14.7707 2.72226 18.9729 3.81785 21.296 6.72733L22.0775 6.10338Z" fill="black"/>
<path d="M10.4607 13.4737C10.2433 13.3035 9.929 13.3418 9.75877 13.5592C9.58853 13.7766 9.62679 14.0909 9.84422 14.2611L10.4607 13.4737ZM10.1525 23.0924L9.80589 23.4528L9.90389 23.547L10.0361 23.5787L10.1525 23.0924ZM25.137 22.6043L25.3742 23.0444L25.574 22.9368L25.6245 22.7155L25.137 22.6043ZM25.6302 15.1452C25.5848 14.8728 25.3272 14.6888 25.0548 14.7342C24.7824 14.7796 24.5984 15.0372 24.6438 15.3096L25.6302 15.1452ZM9.84422 14.2611C10.7215 14.948 12.3308 16.1026 13.815 17.0855C14.5572 17.577 15.2756 18.0306 15.8601 18.363C16.1515 18.5287 16.4179 18.6691 16.6417 18.7694C16.7535 18.8195 16.8621 18.8631 16.9628 18.8949C17.0559 18.9243 17.1757 18.9548 17.299 18.9548V17.9548C17.328 17.9548 17.323 17.96 17.2641 17.9414C17.2128 17.9252 17.1422 17.8979 17.0509 17.857C16.8685 17.7752 16.6332 17.6523 16.3544 17.4937C15.7983 17.1775 15.1013 16.7379 14.3672 16.2518C12.8989 15.2794 11.3121 14.1403 10.4607 13.4737L9.84422 14.2611ZM17.299 18.9548C17.5166 18.9548 17.7691 18.8763 17.9988 18.788C18.2464 18.6927 18.5353 18.5583 18.8493 18.3965C19.4784 18.0724 20.2381 17.6228 21.0217 17.1129C22.5805 16.0987 24.2875 14.811 25.2726 13.7505L24.5399 13.0699C23.6392 14.0396 22.0141 15.2742 20.4764 16.2747C19.7118 16.7722 18.9822 17.2031 18.3912 17.5076C18.0952 17.6601 17.8413 17.7771 17.6398 17.8546C17.539 17.8934 17.4573 17.92 17.3939 17.9364C17.3265 17.9538 17.2984 17.9548 17.299 17.9548V18.9548ZM25.2726 13.7505C25.4442 13.5658 25.6014 13.2944 25.5399 12.9664C25.4821 12.6574 25.2575 12.4594 25.0704 12.3406C24.6956 12.1025 24.0992 11.9469 23.4346 11.8342C22.0676 11.6024 20.0858 11.5037 18.0561 11.5001C16.0207 11.4965 13.9083 11.5886 12.2696 11.7463C11.4523 11.825 10.7402 11.9212 10.2104 12.0331C9.94751 12.0886 9.71185 12.1516 9.52506 12.2252C9.43202 12.2619 9.33555 12.3072 9.24927 12.365C9.17021 12.4179 9.05316 12.5118 8.98279 12.6633L9.88974 13.0846C9.84885 13.1726 9.79332 13.2042 9.80569 13.1959C9.81083 13.1924 9.83571 13.1777 9.89177 13.1556C10.0032 13.1116 10.1768 13.0622 10.417 13.0115C10.8935 12.9109 11.5631 12.8189 12.3655 12.7417C13.9663 12.5876 16.0455 12.4965 18.0544 12.5001C20.0691 12.5037 21.9842 12.6025 23.2674 12.8201C23.9279 12.9322 24.3448 13.0643 24.5342 13.1847C24.6293 13.2451 24.5745 13.244 24.557 13.1505C24.536 13.038 24.6041 13.0008 24.5399 13.0699L25.2726 13.7505ZM8.98279 12.6633C8.89359 12.8554 8.82644 13.1435 8.77203 13.4534C8.7148 13.7791 8.66338 14.1805 8.62108 14.6305C8.53643 15.5311 8.48639 16.6471 8.50326 17.7805C8.52008 18.9116 8.60373 20.0758 8.79186 21.0671C8.88594 21.5628 9.00829 22.027 9.1673 22.4272C9.32438 22.8226 9.52939 23.1869 9.80589 23.4528L10.499 22.732C10.3659 22.604 10.2267 22.3853 10.0966 22.058C9.96856 21.7356 9.86102 21.3375 9.77432 20.8807C9.60091 19.9669 9.51951 18.8653 9.50315 17.7656C9.48682 16.6683 9.53545 15.5885 9.61669 14.7241C9.65734 14.2916 9.70568 13.9182 9.75695 13.6264C9.81101 13.3186 9.86108 13.1463 9.88974 13.0846L8.98279 12.6633ZM10.0361 23.5787C12.2083 24.0983 15.2496 24.3818 18.1216 24.334C19.5601 24.3101 20.9672 24.2031 22.211 23.9974C23.4473 23.7929 24.5553 23.4859 25.3742 23.0444L24.8997 22.1642C24.2219 22.5295 23.2388 22.8138 22.0479 23.0108C20.8644 23.2065 19.5081 23.3109 18.105 23.3342C15.294 23.3809 12.3398 23.1015 10.2688 22.6061L10.0361 23.5787ZM25.6245 22.7155C25.9485 21.2946 26.1002 17.9653 25.6302 15.1452L24.6438 15.3096C25.0959 18.0222 24.9402 21.2184 24.6495 22.4931L25.6245 22.7155Z" fill="black"/>
</svg>
