<svg width="34" height="34" viewBox="0 0 34 34" fill="none" xmlns="http://www.w3.org/2000/svg">
<path d="M32.5019 23.0805C35.2421 10.6721 27.913 3.68967 22.9868 2.00321C17.612 0.163132 3.05146 0.499419 1.20099 15.9364C0.532174 21.5158 2.99997 29.5221 11.6621 32.4395C14.9285 33.5397 20.5894 33.6644 24.5722 31.7228C27.5593 30.2667 31.9409 25.9354 31.5426 17.3926" stroke="black" stroke-linecap="round"/>
<path d="M19.9738 22.4933V32.7952L19.0363 32.9506V22.0243C19.0363 21.7652 19.2462 21.5552 19.5051 21.5552H22.1199C22.1348 21.5552 22.1476 21.5451 22.1513 21.5307L22.9028 18.5223L22.9028 18.5223C22.9039 18.5177 22.9065 18.507 22.8969 18.4946C22.8871 18.4822 22.8761 18.4822 22.8714 18.4822H19.5051C19.2462 18.4822 19.0363 18.2721 19.0363 18.013C19.0363 17.754 19.2462 17.5439 19.5051 17.5439H22.8714C23.1721 17.5439 23.4507 17.68 23.6358 17.9172C23.8208 18.1543 23.8852 18.4578 23.8123 18.7498L23.0607 21.7582C22.9526 22.191 22.5657 22.4933 22.1199 22.4933H19.9738Z" fill="black"/>
<path d="M23.012 8.0173H20.006C16.7086 8.0173 14.0261 10.702 14.0261 14.0018V17.5439H10.9878C10.4531 17.5439 10.0181 17.9793 10.0181 18.5144V21.5228C10.0181 22.058 10.4531 22.4933 10.9878 22.4933H14.0261V31.0494C14.0261 31.3085 14.236 31.5186 14.4949 31.5186C14.7538 31.5186 14.9636 31.3085 14.9636 31.0494V22.0242C14.9636 21.7651 14.7538 21.5551 14.4949 21.5551H10.9878C10.97 21.5551 10.9556 21.5407 10.9556 21.5228V18.5144C10.9556 18.4966 10.97 18.4821 10.9878 18.4821H14.4949C14.7538 18.4821 14.9636 18.2721 14.9636 18.013V14.0018C14.9636 11.2193 17.2256 8.95553 20.006 8.95553H23.012C23.0298 8.95553 23.0443 8.96998 23.0443 8.9878V11.9962C23.0443 12.014 23.0298 12.0285 23.012 12.0285H21.008C19.9208 12.0285 19.0363 12.9137 19.0363 14.0018V16.0073C19.0363 16.2664 19.2461 16.4765 19.505 16.4765C19.7639 16.4765 19.9738 16.2664 19.9738 16.0073V14.0018C19.9738 13.431 20.4377 12.9667 21.008 12.9667H23.012C23.5468 12.9667 23.9818 12.5314 23.9818 11.9962V8.9878C23.9818 8.4527 23.5468 8.0173 23.012 8.0173V8.0173Z" fill="black"/>
</svg>
