<svg width="32" height="32" viewBox="0 0 32 32" fill="none" xmlns="http://www.w3.org/2000/svg">
<path d="M27.3137 4.68625C24.2917 1.66431 20.2737 0 16 0C11.7263 0 7.70831 1.66431 4.68625 4.68625C1.66431 7.70831 0 11.7263 0 16C0 20.2737 1.66431 24.2917 4.68625 27.3137C7.70831 30.3357 11.7263 32 16 32C20.2737 32 24.2917 30.3357 27.3137 27.3137C30.3357 24.2917 32 20.2737 32 16C32 11.7263 30.3357 7.70831 27.3137 4.68625ZM26.6508 26.6508C24.5201 28.7815 21.8636 30.1951 18.9738 30.7706V20.4768H21.1199C21.5658 20.4768 21.9526 20.1748 22.0607 19.7423L22.8123 16.7362C22.8853 16.4444 22.8209 16.1412 22.6358 15.9042C22.4508 15.6672 22.1722 15.5312 21.8715 15.5312H18.5051C18.2463 15.5312 18.0364 15.7411 18.0364 16C18.0364 16.2589 18.2463 16.4688 18.5051 16.4688H21.8715C21.8762 16.4688 21.8872 16.4688 21.8969 16.4812C21.9066 16.4936 21.9039 16.5043 21.9028 16.5089L21.1513 19.5149C21.1477 19.5293 21.1348 19.5394 21.12 19.5394H18.5051C18.2463 19.5394 18.0364 19.7493 18.0364 20.0081V30.9259C17.3668 31.0157 16.687 31.0625 16 31.0625C11.9766 31.0625 8.19412 29.4957 5.34919 26.6508C2.50425 23.8059 0.9375 20.0234 0.9375 16C0.9375 11.9766 2.50425 8.19412 5.34919 5.34919C8.19412 2.50425 11.9766 0.9375 16 0.9375C20.0234 0.9375 23.8059 2.50425 26.6508 5.34919C29.4957 8.19412 31.0625 11.9766 31.0625 16C31.0625 20.0234 29.4957 23.8059 26.6508 26.6508Z" fill="black"/>
<path d="M22.0121 6.01206H19.006C15.7087 6.01206 13.0262 8.69463 13.0262 11.9919V15.5313H9.98788C9.45313 15.5313 9.01813 15.9663 9.01813 16.501V19.5071C9.01813 20.0418 9.45313 20.4768 9.98788 20.4768H13.0262V29.0263C13.0262 29.2851 13.2361 29.495 13.4949 29.495C13.7538 29.495 13.9637 29.2851 13.9637 29.0263V20.0081C13.9637 19.7492 13.7538 19.5393 13.4949 19.5393H9.98788C9.97007 19.5393 9.95563 19.5249 9.95563 19.5071V16.501C9.95563 16.4832 9.97007 16.4688 9.98788 16.4688H13.4949C13.7538 16.4688 13.9637 16.2589 13.9637 16V11.9919C13.9637 9.21156 16.2257 6.94956 19.006 6.94956H22.0121C22.0299 6.94956 22.0443 6.964 22.0443 6.98181V9.98788C22.0443 10.0057 22.0299 10.0201 22.0121 10.0201H20.0081C18.9208 10.0201 18.0363 10.9046 18.0363 11.9919V13.9959C18.0363 14.2548 18.2462 14.4646 18.5051 14.4646C18.764 14.4646 18.9738 14.2548 18.9738 13.9959V11.9919C18.9738 11.4216 19.4378 10.9576 20.0081 10.9576H22.0121C22.5468 10.9576 22.9818 10.5226 22.9818 9.98788V6.98181C22.9818 6.44712 22.5468 6.01206 22.0121 6.01206V6.01206Z" fill="black"/>
</svg>
