<svg width="34" height="34" viewBox="0 0 34 34" fill="none" xmlns="http://www.w3.org/2000/svg">
<path d="M26.9389 27.7431C15.1214 39.9959 1 28.5797 1 16.4357C1 3.91733 16.6251 -3.83219 26.9389 4.41048C38.6213 13.7469 32.4422 38.5126 16.7206 27.743" stroke="black" stroke-linecap="round" stroke-linejoin="round"/>
<path d="M10.5099 13.6881C11.0286 14.8218 9.1474 15.0643 9.1474 17.7743C9.1474 21.9121 11.2431 23.2616 13.8124 23.5267C14.5592 23.6037 14.8124 24.3013 13.8124 24.3013C12.8124 24.3013 11.0581 24.0328 9.81236 22.8013C7.62236 20.6363 7.30487 16.6256 9.47862 13.8706C9.27987 13.1168 9.05917 12.0233 9.55917 10.5233C9.97353 9.28018 12.4824 10.827 13.8124 11.6608C15.9886 11.1395 18.3374 11.1408 20.5136 11.6608C23.1786 9.98451 23.8017 9.94208 24.0592 10.0233C25.1517 10.3658 24.9572 12.8509 24.6535 14.0409C27.1022 17.1521 27.1532 23.0396 20.5136 24.3013C20.5136 24.3013 16.5103 24.656 16.1404 24.2862C15.7706 23.9163 15.8476 23.6743 16.5592 23.5233C17.7924 23.2616 25.1749 24.7293 25.1749 17.7743C25.1749 16.5943 24.7736 15.5656 23.9836 14.7156C23.2636 13.9418 24.4061 13.4368 23.8549 11.3693C21.9411 11.7468 21.3124 12.9843 20.4324 12.7481C18.3249 12.1731 16.0036 12.1731 13.8949 12.7481C13.0436 12.9768 12.2274 11.7043 10.4536 11.3768C10.0936 12.7456 10.4911 13.6468 10.5099 13.6881Z" fill="black"/>
</svg>
