<svg width="34" height="34" viewBox="0 0 34 34" fill="none" xmlns="http://www.w3.org/2000/svg">
<path d="M6.25691 26.8553C-5.99587 15.0758 5.42025 1 17.5643 1C30.0827 1 37.8322 16.5747 29.5895 26.8553C20.2531 38.5 -5.50006 33.8936 3.49994 10.4694" stroke="black" stroke-linecap="round" stroke-linejoin="round"/>
<path d="M17.1378 24.0001C17.0915 24.0001 17.0451 24.0001 16.9984 23.9999C15.901 24.0026 14.8871 23.9747 13.901 23.9147C12.9969 23.8597 12.1717 23.5472 11.5144 23.0113C10.8802 22.4941 10.447 21.7948 10.2271 20.933C10.0357 20.1828 10.0256 19.4463 10.0158 18.734C10.0088 18.2229 10.0015 17.6173 10 17.0014C10.0015 16.383 10.0088 15.7773 10.0158 15.2662C10.0256 14.554 10.0357 13.8176 10.2271 13.0672C10.447 12.2055 10.8802 11.5062 11.5144 10.989C12.1717 10.453 12.9969 10.1406 13.9011 10.0856C14.8872 10.0256 15.9014 9.99766 17.0011 10.0003C18.0988 9.99798 19.1124 10.0256 20.0985 10.0856C21.0026 10.1406 21.8278 10.453 22.4851 10.989C23.1195 11.5062 23.5525 12.2055 23.7724 13.0672C23.9638 13.8175 23.974 14.554 23.9837 15.2662C23.9907 15.7773 23.9981 16.383 23.9995 16.9988V17.0014C23.9981 17.6173 23.9907 18.2229 23.9837 18.734C23.974 19.4462 23.9639 20.1827 23.7724 20.933C23.5525 21.7948 23.1195 22.4941 22.4851 23.0113C21.8278 23.5472 21.0026 23.8597 20.0985 23.9147C19.1542 23.9721 18.1841 24.0001 17.1378 24.0001ZM16.9984 22.9062C18.078 22.9087 19.0692 22.8815 20.0321 22.823C20.7157 22.7814 21.3084 22.5596 21.7939 22.1636C22.2428 21.7976 22.5519 21.2926 22.7126 20.6626C22.872 20.0381 22.8812 19.3675 22.89 18.719C22.897 18.2114 22.9043 17.61 22.9057 17.0001C22.9043 16.3901 22.897 15.7889 22.89 15.2812C22.8812 14.6328 22.872 13.9622 22.7126 13.3376C22.5519 12.7076 22.2428 12.2026 21.7939 11.8365C21.3084 11.4407 20.7157 11.2188 20.0321 11.1773C19.0692 11.1187 18.078 11.0916 17.001 11.094C15.9217 11.0914 14.9303 11.1187 13.9674 11.1773C13.2838 11.2188 12.6911 11.4407 12.2056 11.8365C11.7568 12.2026 11.4476 12.7076 11.2869 13.3376C11.1275 13.9622 11.1183 14.6326 11.1095 15.2812C11.1025 15.7893 11.0953 16.391 11.0938 17.0014C11.0953 17.6092 11.1025 18.2109 11.1095 18.719C11.1183 19.3675 11.1275 20.0381 11.2869 20.6626C11.4476 21.2926 11.7568 21.7976 12.2056 22.1636C12.6911 22.5594 13.2838 22.7813 13.9674 22.8228C14.9303 22.8815 15.9219 22.9088 16.9984 22.9062ZM16.9724 20.4181C15.0878 20.4181 13.5544 18.8848 13.5544 17.0001C13.5544 15.1154 15.0878 13.5822 16.9724 13.5822C18.8571 13.5822 20.3903 15.1154 20.3903 17.0001C20.3903 18.8848 18.8571 20.4181 16.9724 20.4181ZM16.9724 14.6759C15.6908 14.6759 14.6481 15.7186 14.6481 17.0001C14.6481 18.2816 15.6908 19.3243 16.9724 19.3243C18.254 19.3243 19.2966 18.2816 19.2966 17.0001C19.2966 15.7186 18.254 14.6759 16.9724 14.6759ZM20.7731 12.4884C20.3202 12.4884 19.9528 12.8556 19.9528 13.3087C19.9528 13.7618 20.3202 14.129 20.7731 14.129C21.2262 14.129 21.5935 13.7618 21.5935 13.3087C21.5935 12.8556 21.2262 12.4884 20.7731 12.4884Z" fill="black"/>
</svg>
