<svg width="34" height="34" viewBox="0 0 34 34" fill="none" xmlns="http://www.w3.org/2000/svg">
<path d="M30.2865 18.0825C32.1169 14.8361 31.8481 10.5579 30.2865 7.87948C24.3376 -2.3234 1.9152 -1.85979 1 13.8907C1 26.6944 16.2968 38.6044 26.9917 30.1739C39.1059 20.6247 31.8315 0.518177 14.728 3.70548" stroke="black" stroke-width="1.02951" stroke-linecap="round" stroke-linejoin="round"/>
<path d="M12.2631 13.6842H9.10523C8.84361 13.6842 8.63156 13.8963 8.63156 14.1579V23.6316C8.63156 23.8933 8.84367 24.1053 9.10523 24.1053H12.2631C12.5248 24.1053 12.7368 23.8932 12.7368 23.6316V14.1579C12.7369 13.8963 12.5248 13.6842 12.2631 13.6842ZM11.7895 23.1579H9.57896V14.6316H11.7895V23.1579Z" fill="black"/>
<path d="M10.3684 8C9.06242 8 8 9.06242 8 10.3684C8 11.6744 9.06242 12.7368 10.3684 12.7368C11.6744 12.7368 12.7368 11.6744 12.7368 10.3684C12.7368 9.06242 11.6744 8 10.3684 8ZM10.3684 11.7895C9.58484 11.7895 8.94734 11.152 8.94734 10.3684C8.94734 9.5849 9.58479 8.94734 10.3684 8.94734C11.152 8.94734 11.7895 9.58484 11.7895 10.3684C11.7895 11.152 11.1521 11.7895 10.3684 11.7895Z" fill="black"/>
<path d="M21.1053 13.6842C20.1647 13.6842 19.2379 13.9278 18.4211 14.3813V14.158C18.4211 13.8963 18.209 13.6843 17.9474 13.6843H15.4211C15.1595 13.6843 14.9474 13.8964 14.9474 14.158V23.6316C14.9474 23.8933 15.1595 24.1053 15.4211 24.1053H18.579C18.8406 24.1053 19.0527 23.8932 19.0527 23.6316V20.2309C19.0527 19.1171 19.2992 17.7895 20.4737 17.7895C21.3503 17.7895 21.7098 18.5289 21.8359 19.3671C21.8704 19.5969 22.0696 19.766 22.3021 19.766C22.5938 19.766 22.8132 19.5044 22.7682 19.2162C22.5303 17.6943 21.7236 16.8422 20.4737 16.8422C18.9686 16.8422 18.1053 18.0774 18.1053 20.2309V23.158H15.8948V14.6316H17.4737V15.2544C17.4737 15.4013 17.5349 15.5448 17.6498 15.6364C17.8281 15.7786 18.0736 15.7736 18.2438 15.6371C19.0642 14.9793 20.0536 14.6316 21.1053 14.6316C23.8321 14.6316 25.0527 16.9313 25.0527 19.2105V23.1578H22.8422V21.5981C22.8422 21.3372 22.6307 21.1258 22.3699 21.1258H22.3671C22.1063 21.1258 21.8949 21.3372 21.8949 21.5981V23.6315C21.8949 23.8931 22.107 24.1052 22.3686 24.1052H25.5265C25.7881 24.1052 26.0001 23.8931 26.0001 23.6315V19.2104C26 15.9567 23.9873 13.6842 21.1053 13.6842Z" fill="black"/>
</svg>
