<svg width="34" height="34" viewBox="0 0 34 34" fill="none" xmlns="http://www.w3.org/2000/svg">
<path d="M20.1246 32.9307C5.5295 33.9285 1 23.9502 1 16.4022C1 3.91101 16.6768 -3.82171 27.0248 4.40309C38.7458 13.7193 33.2098 37.4209 10.5314 30.4361" stroke="black" stroke-linecap="round" stroke-linejoin="round"/>
<path d="M24.7324 17.3717C23.1178 16.42 21.3913 15.7422 19.3787 15.357C17.7991 15.0548 16.1093 14.9313 14.3564 14.9897C11.4502 15.0863 9.36889 15.6404 9.14002 15.7037C8.20162 15.9646 7.64782 16.9475 7.90539 17.8946C8.16295 18.8415 9.13696 19.4015 10.0737 19.1436C10.1516 19.1227 12.0099 18.6297 14.5296 18.5522C16.8334 18.4814 20.183 18.7541 23.0617 20.4513C23.3325 20.6105 23.6403 20.6946 23.952 20.6946C24.578 20.6946 25.0506 20.3561 25.3667 19.8112C25.8582 18.9621 25.5738 17.8675 24.7324 17.3717ZM24.5 19.5C24.4067 19.6606 24.4266 19.6422 24.2158 19.7173C23.952 19.8112 23.5981 19.6897 23.5174 19.6422C20.6613 17.9583 17.4196 17.5617 15 17.5617C14.7649 17.5617 14.7102 17.555 14.4916 17.5617C11.8294 17.6436 9.55817 18.1726 9.47036 18.1962C9.1934 18.2726 8.9064 17.8405 8.83056 17.5617C8.75473 17.2828 9.19533 16.9934 9.47036 16.9169C9.55543 16.8934 11.6806 16.0934 14.4916 16C16.153 15.9445 17.7509 16.061 19.2404 16.3459C21.1128 16.7043 23.0084 17.6208 24.5 18.5C24.7476 18.646 24.6445 19.2499 24.5 19.5Z" fill="black"/>
<path d="M27.7979 14.138C27.6605 13.6098 27.2698 13.3161 26.8022 13.0404C24.8365 11.8817 22.8643 10.907 20.4109 10.4374C18.4838 10.0688 16.4215 9.91825 14.2812 9.98908C10.6394 10.1104 8.02468 10.8298 7.91592 10.8602C7.39386 11.0052 6.95906 11.3466 6.69164 11.8215C6.42428 12.2964 6.3542 12.8906 6.49802 13.4171C6.64177 13.9437 7.03663 14.1209 7.50742 14.3906C8 14.5 8.4777 14.6451 9 14.5C9.09055 14.4751 18.1277 12.1627 25.0249 16.2287C25.3349 16.4117 25.6883 16.5 26.0467 16.5C26.7652 16.5 27.2254 16.3135 27.587 15.6886C27.8603 15.217 27.9352 14.6663 27.7979 14.138ZM26.7209 15.054C26.5818 15.2943 26.3235 15.4436 26.0467 15.4436C25.9075 15.4436 25.7758 15.4074 25.6546 15.336C22.2795 13.3462 18.6591 13.0404 15.502 13.0404C11.7373 13.0404 8.71219 13.5754 8.6613 13.5898C8.46036 13.6456 8.25 13.6192 8.06896 13.5154C7.88798 13.4118 7.75782 13.243 7.70251 13.0404C7.64719 12.8378 7.67332 12.6256 7.77616 12.4429C7.879 12.2603 8.0462 12.1291 8.24776 12.0731C8.35147 12.0442 10.7861 11.1728 14.2812 11.0564C16.3297 10.9882 18.5738 11.0414 20.4109 11.3928C22.7241 11.8355 24.5989 12.8916 26.4413 13.9777C26.6212 14.0838 26.7494 14.2541 26.8022 14.4573C26.855 14.6605 26.8262 14.8723 26.7209 15.054Z" fill="black"/>
<path d="M23.8487 22.3573C23.7411 21.9431 23.4798 21.5959 23.1131 21.3796C21.7409 20.5706 20.1778 19.9946 18.4675 19.6674C17.127 19.4108 15.6934 19.3058 14.2063 19.3555C11.6721 19.4397 9.85507 19.9408 9.78011 19.9618C8.93631 20.1961 8.43827 21.0798 8.66977 21.9316C8.90133 22.7838 9.7773 23.2873 10.621 23.0544C10.6367 23.05 12.2221 22.6245 14.3587 22.559C16.2903 22.4999 19.0985 22.7274 21.509 24.1483C21.7523 24.2919 22.0294 24.3677 22.3102 24.3677C22.873 24.3677 23.3991 24.0634 23.6833 23.5734C23.8977 23.2037 23.9564 22.7717 23.8487 22.3573ZM23 23C22.8436 23.2697 22.5426 23.2697 22.4192 23.2697C22.3586 23.2697 22.1919 23.3011 22.1385 23.2697C19.709 21.8374 16.9554 21.5 14.9007 21.5C14.7005 21.5 14.5068 21.4945 14.3207 21.5C12.0081 21.5708 10.2168 22.0345 10.2004 22.039C10.0185 22.0892 9.82993 21.7822 9.78011 21.5988C9.73028 21.4154 9.92978 21.2251 10.1123 21.1744C10.1295 21.1695 11.8605 20.4841 14.2475 20.4049C15.6428 20.3582 16.7494 20.2606 18 20.5C19.5702 20.8003 21.251 21.2637 22.5 22C22.579 22.0466 22.9768 22.4108 23 22.5C23.0231 22.5891 23.0461 22.9204 23 23Z" fill="black"/>
</svg>
