<svg width="34" height="34" viewBox="0 0 34 34" fill="none" xmlns="http://www.w3.org/2000/svg">
<path d="M30.9643 8.88371C33.4572 12.9019 33.2664 19.5684 32.46 22.9474C30.5341 31.0175 21.4674 33.3128 15.3068 32.9669C0.553303 32.1384 0.0839121 16.3833 1.56095 10.8542C2.48664 7.3889 8.81135 -1.22647 21.12 1.53814C35.4515 4.7571 33.6438 22.5052 27.4743 27.4679" stroke="black" stroke-linecap="round"/>
<path d="M19.6451 16.019L15.5616 13.7847C15.3268 13.6562 15.0492 13.661 14.8191 13.7974C14.5888 13.9339 14.4514 14.175 14.4514 14.4427V18.873C14.4514 19.1394 14.588 19.3801 14.8167 19.5168C14.9361 19.5881 15.0686 19.6239 15.2013 19.6239C15.3228 19.6239 15.4447 19.5939 15.5568 19.5335L19.6405 17.3377C19.8829 17.2073 20.0342 16.9552 20.0353 16.6798C20.0363 16.4044 19.8868 16.1513 19.6451 16.019V16.019ZM15.5346 18.3157V15.0045L18.5866 16.6745L15.5346 18.3157Z" fill="black"/>
<path d="M25.906 13.1502L25.9052 13.1417C25.8895 12.993 25.7337 11.6696 25.0904 10.9965C24.3468 10.2048 23.5037 10.1087 23.0983 10.0626C23.0647 10.0587 23.034 10.0552 23.0065 10.0516L22.9742 10.0482C20.5306 9.87048 16.8402 9.84623 16.8033 9.84609L16.8 9.84595L16.7968 9.84609C16.7598 9.84623 13.0695 9.87048 10.6038 10.0482L10.5713 10.0516C10.545 10.0551 10.5161 10.0583 10.4847 10.062C10.0839 10.1082 9.2499 10.2046 8.50418 11.0249C7.89145 11.6908 7.71433 12.9858 7.69613 13.1313L7.69402 13.1502C7.68852 13.2121 7.55807 14.6859 7.55807 16.1655V17.5487C7.55807 19.0282 7.68852 20.5021 7.69402 20.5641L7.69501 20.5734C7.71066 20.7198 7.86635 22.0189 8.50672 22.6923C9.20591 23.4574 10.09 23.5587 10.5655 23.6131C10.6407 23.6217 10.7054 23.6291 10.7495 23.6368L10.7923 23.6427C12.2032 23.777 16.6269 23.8431 16.8144 23.8458L16.8201 23.8459L16.8257 23.8458C16.8626 23.8457 20.5529 23.8214 22.9965 23.6437L23.0288 23.6403C23.0597 23.6362 23.0944 23.6326 23.1324 23.6286C23.531 23.5863 24.3604 23.4985 25.0959 22.6893C25.7086 22.0233 25.8859 20.7283 25.9039 20.5829L25.906 20.564C25.9115 20.5019 26.0421 19.0282 26.0421 17.5487V16.1655C26.042 14.6859 25.9115 13.2123 25.906 13.1502V13.1502ZM24.9588 17.5487C24.9588 18.9181 24.8392 20.3285 24.8279 20.4579C24.782 20.8146 24.5951 21.6339 24.2966 21.9584C23.8363 22.4648 23.3634 22.515 23.0182 22.5515C22.9765 22.5559 22.9378 22.5601 22.9029 22.5645C20.5393 22.7354 16.9883 22.7616 16.8247 22.7626C16.6412 22.7599 12.2823 22.6932 10.9144 22.5662C10.8443 22.5548 10.7686 22.546 10.6887 22.537C10.2839 22.4906 9.72966 22.4271 9.30349 21.9584L9.29348 21.9477C9.00016 21.6421 8.81866 20.8759 8.77255 20.4621C8.76395 20.3643 8.64126 18.9373 8.64126 17.5487V16.1655C8.64126 14.7976 8.76056 13.3888 8.77212 13.2567C8.82698 12.8366 9.01736 12.0669 9.30349 11.7558C9.77789 11.234 10.2781 11.1762 10.6089 11.138C10.6405 11.1343 10.67 11.1309 10.6972 11.1274C13.0951 10.9556 16.6717 10.9301 16.8 10.9291C16.9284 10.93 20.5037 10.9556 22.8803 11.1274C22.9095 11.1311 22.9414 11.1347 22.9756 11.1387C23.3159 11.1775 23.8302 11.2361 24.3022 11.7396L24.3066 11.7442C24.5999 12.0498 24.7814 12.8294 24.8275 13.2515C24.8357 13.3438 24.9588 14.7739 24.9588 16.1655V17.5487Z" fill="black"/>
</svg>
